nColumns=19
nRows=110
DataType=double
version=3
OpenSimVersion=4.1
endheader
time	ground_force_calcn_r_vx	ground_force_calcn_r_vy	ground_force_calcn_r_vz	ground_force_calcn_r_px	ground_force_calcn_r_py	ground_force_calcn_r_pz	ground_force_calcn_r_mx	ground_force_calcn_r_my	ground_force_calcn_r_mz	ground_force_calcn_l_vx	ground_force_calcn_l_vy	ground_force_calcn_l_vz	ground_force_calcn_l_px	ground_force_calcn_l_py	ground_force_calcn_l_pz	ground_force_calcn_l_mx	ground_force_calcn_l_my	ground_force_calcn_l_mz
1.46	0	0	0	0	0	0	0	0	0	0	0	0	0	0	0	0	0	0
1.465	0	0	0	0	0	0	0	0	0	-69.8662	122.711	-8.13631	1.14367	0	-0.394335	1.98439	-3.48532	0.231093
1.47	0	0	0	0	0	0	0	0	0	-150.68	333.131	19.5404	1.02186	0	-0.431496	1.26091	-2.78768	-0.163517
1.475	0	0	0	0	0	0	0	0	0	-246.807	639.61	73.3936	1.01688	0	-0.419286	-1.28634	3.33362	0.382523
1.48	0	0	0	0	0	0	0	0	0	-329.079	1004.06	150.162	1.00588	0	-0.406331	-4.07257	12.4259	1.85835
1.485	0	0	0	0	0	0	0	0	0	-369.154	1386.21	221.028	0.990966	0	-0.392685	-3.49576	13.1269	2.09306
1.49	0	0	0	0	0	0	0	0	0	-371.125	1781.36	251.947	0.968894	0	-0.379687	0.814781	-3.91087	-0.553133
1.495	0	0	0	0	0	0	0	0	0	-363.574	2186.41	223.262	0.939311	0	-0.369265	4.93322	-29.6667	-3.02937
1.5	0	0	0	0	0	0	0	0	0	-352.392	2565.03	133.449	0.912541	0	-0.36263	5.7984	-42.206	-2.19583
1.505	0	0	0	0	0	0	0	0	0	-338.613	2869.47	4.87812	0.892054	0	-0.359046	3.87582	-32.8444	-0.0558359
1.51	0	0	0	0	0	0	0	0	0	-321.051	3064.19	-126.528	0.872756	0	-0.357617	1.17115	-11.1778	0.461559
1.515	0	0	0	0	0	0	0	0	0	-283.296	3137.9	-220.758	0.848938	0	-0.357352	-0.726569	8.04777	-0.566177
1.52	0	0	0	0	0	0	0	0	0	-212.141	3113.97	-254.235	0.816824	0	-0.357478	-1.22592	17.9949	-1.46917
1.525	0	0	0	0	0	0	0	0	0	-104.753	3033.41	-226.682	0.779132	0	-0.357106	-0.644001	18.6487	-1.39359
1.53	0	0	0	0	0	0	0	0	0	22.2368	2922.23	-164.715	0.742335	0	-0.356038	0.106576	14.0056	-0.789443
1.535	0	0	0	0	0	0	0	0	0	146.091	2772.45	-104.645	0.70932	0	-0.35496	0.41919	7.95519	-0.300266
1.54	0	0	0	0	0	0	0	0	0	256.032	2565.65	-65.6803	0.679272	0	-0.35457	0.0088458	0.0886422	-0.00226923
1.545	0	0	0	0	0	0	0	0	0	352.418	2294.77	-42.0099	0.650153	0	-0.354967	-1.29439	-8.42842	0.154298
1.55	0	0	0	0	0	0	0	0	0	434.11	1961	-20.3923	0.617302	0	-0.356223	-2.84383	-12.8464	0.133589
1.555	0	0	0	0	0	0	0	0	0	489.6	1568.51	3.22876	0.569505	0	-0.359545	-4.18866	-13.4191	-0.027623
1.56	0	0	0	0	0	0	0	0	0	511.002	1136.06	21.8729	0.488305	0	-0.368626	-6.64104	-14.7644	-0.284262
1.565	0	0	0	0	0	0	0	0	0	493.249	712.773	26.2901	0.343079	0	-0.391124	-11.4993	-16.6172	-0.612913
1.57	0	0	0	0	0	0	0	0	0	433.008	363.321	9.82433	0.085847	0	-0.426703	-10.8418	-9.09699	-0.245986
1.575	0	0	0	0	0	0	0	0	0	339.037	127.127	-29.0742	0.0975024	0	-0.320172	9.32812	3.49772	-0.799934
1.58	0	0	0	0	0	0	0	0	0	0	0	0	0	0	0	0	0	0
1.585	0	0	0	0	0	0	0	0	0	0	0	0	0	0	0	0	0	0
1.59	0	0	0	0	0	0	0	0	0	0	0	0	0	0	0	0	0	0
1.595	0	0	0	0	0	0	0	0	0	0	0	0	0	0	0	0	0	0
1.6	0	0	0	0	0	0	0	0	0	0	0	0	0	0	0	0	0	0
1.605	0	0	0	0	0	0	0	0	0	0	0	0	0	0	0	0	0	0
1.61	0	0	0	0	0	0	0	0	0	0	0	0	0	0	0	0	0	0
1.615	0	0	0	0	0	0	0	0	0	0	0	0	0	0	0	0	0	0
1.62	0	0	0	0	0	0	0	0	0	0	0	0	0	0	0	0	0	0
1.625	0	0	0	0	0	0	0	0	0	0	0	0	0	0	0	0	0	0
1.63	0	0	0	0	0	0	0	0	0	0	0	0	0	0	0	0	0	0
1.635	0	0	0	0	0	0	0	0	0	0	0	0	0	0	0	0	0	0
1.64	0	0	0	0	0	0	0	0	0	0	0	0	0	0	0	0	0	0
1.645	0	0	0	0	0	0	0	0	0	0	0	0	0	0	0	0	0	0
1.65	0	0	0	0	0	0	0	0	0	0	0	0	0	0	0	0	0	0
1.655	0	0	0	0	0	0	0	0	0	0	0	0	0	0	0	0	0	0
1.66	0	0	0	0	0	0	0	0	0	0	0	0	0	0	0	0	0	0
1.665	0	0	0	0	0	0	0	0	0	0	0	0	0	0	0	0	0	0
1.67	0	0	0	0	0	0	0	0	0	0	0	0	0	0	0	0	0	0
1.675	0	0	0	0	0	0	0	0	0	0	0	0	0	0	0	0	0	0
1.68	0	0	0	0	0	0	0	0	0	0	0	0	0	0	0	0	0	0
1.685	0	0	0	0	0	0	0	0	0	0	0	0	0	0	0	0	0	0
1.69	0	0	0	0	0	0	0	0	0	0	0	0	0	0	0	0	0	0
1.695	-81.5392	88.5945	-11.8054	1.19781	0	-0.266284	1.7151	-1.8635	0.248315	0	0	0	0	0	0	0	0	0
1.7	-149.757	276.556	-27.8711	1.07466	0	-0.266586	3.54016	-6.53759	0.658855	0	0	0	0	0	0	0	0	0
1.705	-230.163	563.165	-61.2644	1.03401	0	-0.28249	3.79489	-9.28538	1.01012	0	0	0	0	0	0	0	0	0
1.71	-308.352	918.7	-104.535	1.01559	0	-0.292825	3.40834	-10.1547	1.15546	0	0	0	0	0	0	0	0	0
1.715	-351.293	1294.69	-143.142	1.00304	0	-0.301555	2.5484	-9.39208	1.0384	0	0	0	0	0	0	0	0	0
1.72	-344.508	1676.67	-159.143	0.986743	0	-0.310212	0.123503	-0.601071	0.0570512	0	0	0	0	0	0	0	0	0
1.725	-323.792	2063.22	-137.499	0.961283	0	-0.317039	-2.80806	17.8932	-1.19245	0	0	0	0	0	0	0	0	0
1.73	-325.884	2425.7	-78.517	0.934448	0	-0.321152	-4.52908	33.712	-1.09122	0	0	0	0	0	0	0	0	0
1.735	-355.163	2726.02	7.09252	0.91387	0	-0.323412	-4.93448	37.8741	0.0985405	0	0	0	0	0	0	0	0	0
1.74	-389.147	2948.41	111.625	0.897731	0	-0.324705	-4.59886	34.8437	1.31916	0	0	0	0	0	0	0	0	0
1.745	-392.097	3090.26	231.19	0.880679	0	-0.325669	-3.98709	31.4237	2.35089	0	0	0	0	0	0	0	0	0
1.75	-346.815	3143.69	353.712	0.856604	0	-0.326384	-2.97612	26.9769	3.0353	0	0	0	0	0	0	0	0	0
1.755	-249.234	3109.05	449.584	0.823049	0	-0.327066	-1.03878	12.9583	1.87383	0	0	0	0	0	0	0	0	0
1.76	-106.241	3010.28	492.582	0.781984	0	-0.328131	0.431755	-12.2336	-2.00183	0	0	0	0	0	0	0	0	0
1.765	63.5068	2874.06	478.598	0.738034	0	-0.32998	-0.722648	-32.7041	-5.44599	0	0	0	0	0	0	0	0	0
1.77	230.773	2706	424.453	0.697728	0	-0.331497	-2.88451	-33.8231	-5.30537	0	0	0	0	0	0	0	0	0
1.775	360.764	2495.39	344.213	0.664191	0	-0.331585	-2.51282	-17.3811	-2.39754	0	0	0	0	0	0	0	0	0
1.78	444.906	2231.99	246.054	0.63496	0	-0.329725	1.8681	9.37181	1.03315	0	0	0	0	0	0	0	0	0
1.785	501.473	1921.68	139.336	0.605459	0	-0.325311	10.6218	40.7036	2.95132	0	0	0	0	0	0	0	0	0
1.79	544.397	1577.57	42.2101	0.568508	0	-0.316929	23.4886	68.066	1.8212	0	0	0	0	0	0	0	0	0
1.795	563.239	1213.81	-22.384	0.511256	0	-0.302618	38.4594	82.8817	-1.52844	0	0	0	0	0	0	0	0	0
1.8	540.152	848.891	-35.5701	0.407075	0	-0.282356	48.1798	75.7183	-3.17274	0	0	0	0	0	0	0	0	0
1.805	475.297	515.179	3.25551	0.20235	0	-0.275952	36.9579	40.059	0.25314	0	0	0	0	0	0	0	0	0
1.81	380.8	251.854	73.0969	-0.181491	0	-0.407076	-12.1526	-8.03753	-2.33277	0	0	0	0	0	0	0	0	0
1.815	267.714	79.7848	133.343	0.519893	0	-1.00322	-54.355	-16.199	-27.0732	0	0	0	0	0	0	0	0	0
1.82	0	0	0	0	0	0	0	0	0	0	0	0	0	0	0	0	0	0
1.825	0	0	0	0	0	0	0	0	0	0	0	0	0	0	0	0	0	0
1.83	0	0	0	0	0	0	0	0	0	0	0	0	0	0	0	0	0	0
1.835	0	0	0	0	0	0	0	0	0	0	0	0	0	0	0	0	0	0
1.84	0	0	0	0	0	0	0	0	0	0	0	0	0	0	0	0	0	0
1.845	0	0	0	0	0	0	0	0	0	0	0	0	0	0	0	0	0	0
1.85	0	0	0	0	0	0	0	0	0	0	0	0	0	0	0	0	0	0
1.855	0	0	0	0	0	0	0	0	0	0	0	0	0	0	0	0	0	0
1.86	0	0	0	0	0	0	0	0	0	0	0	0	0	0	0	0	0	0
1.865	0	0	0	0	0	0	0	0	0	0	0	0	0	0	0	0	0	0
1.87	0	0	0	0	0	0	0	0	0	0	0	0	0	0	0	0	0	0
1.875	0	0	0	0	0	0	0	0	0	0	0	0	0	0	0	0	0	0
1.88	0	0	0	0	0	0	0	0	0	0	0	0	0	0	0	0	0	0
1.885	0	0	0	0	0	0	0	0	0	0	0	0	0	0	0	0	0	0
1.89	0	0	0	0	0	0	0	0	0	0	0	0	0	0	0	0	0	0
1.895	0	0	0	0	0	0	0	0	0	0	0	0	0	0	0	0	0	0
1.9	0	0	0	0	0	0	0	0	0	0	0	0	0	0	0	0	0	0
1.905	0	0	0	0	0	0	0	0	0	0	0	0	0	0	0	0	0	0
1.91	0	0	0	0	0	0	0	0	0	0	0	0	0	0	0	0	0	0
1.915	0	0	0	0	0	0	0	0	0	0	0	0	0	0	0	0	0	0
1.92	0	0	0	0	0	0	0	0	0	0	0	0	0	0	0	0	0	0
1.925	0	0	0	0	0	0	0	0	0	0	0	0	0	0	0	0	0	0
1.93	0	0	0	0	0	0	0	0	0	0	0	0	0	0	0	0	0	0
1.935	0	0	0	0	0	0	0	0	0	-70.3657	54.716	-21.6371	1.16537	0	-0.165085	12.6188	-9.81228	3.8802
1.94	0	0	0	0	0	0	0	0	0	-134.838	250.372	-9.09211	1.00098	0	-0.464763	4.80202	-8.91654	0.323799
1.945	0	0	0	0	0	0	0	0	0	-226.134	571.95	39.0495	0.976839	0	-0.442514	0.502014	-1.26972	-0.0866894
1.95	0	0	0	0	0	0	0	0	0	-324.213	1004.6	123.696	0.966281	0	-0.423574	-2.96092	9.17466	1.12968
1.955	0	0	0	0	0	0	0	0	0	-385.139	1500.79	226.305	0.960174	0	-0.40511	-4.08594	15.9218	2.40086
1.96	0	0	0	0	0	0	0	0	0	-388.737	2034.86	305.347	0.953947	0	-0.387354	-0.660138	3.45553	0.518528
1.965	0	0	0	0	0	0	0	0	0	-379.482	2577.61	323.39	0.940513	0	-0.371346	5.31856	-36.126	-4.53242
1.97	0	0	0	0	0	0	0	0	0	-392.281	3045.34	249.923	0.925379	0	-0.358997	10.4633	-81.2283	-6.66619
1.975	0	0	0	0	0	0	0	0	0	-425.735	3348.77	82.2721	0.916731	0	-0.351155	12.8697	-101.232	-2.48705
1.98	0	0	0	0	0	0	0	0	0	-491.758	3475.95	-141.483	0.909183	0	-0.348381	11.8246	-83.5811	3.40203
1.985	0	0	0	0	0	0	0	0	0	-556.242	3479.82	-347.416	0.897514	0	-0.349865	6.15646	-38.5145	3.84519
1.99	0	0	0	0	0	0	0	0	0	-552.858	3429.99	-469.91	0.880396	0	-0.353212	-1.15833	7.18637	-0.984536
1.995	0	0	0	0	0	0	0	0	0	-467.879	3367.42	-479.628	0.852369	0	-0.35513	-5.09734	36.6866	-5.22534
2	0	0	0	0	0	0	0	0	0	-324.689	3288.19	-400.326	0.812702	0	-0.355284	-4.54386	46.0166	-5.60238
2.005	0	0	0	0	0	0	0	0	0	-157.638	3181.37	-277.104	0.768848	0	-0.354503	-1.90846	38.5157	-3.35479
